#!OML:ASF H:\Dans Jumps\Project 1\Capture day 1\Session 1\subject.ASF
:FULLY-SPECIFIED
:DEGREES
260
root 0.148884 17.761 -7.70231 12.7384 1.0477 -1.09641
lowerback 2.38591 0.420192 -1.02657
upperback 3.63422 0.522973 1.69325
thorax 2.36886 0.211211 2.31384
lowerneck -11.9622 -0.0430879 -2.22931
upperneck 18.138 0.266481 0.63725
head 7.54878 0.0360727 0.605575
rclavicle 3.47873e-015 4.77083e-015
rhumerus -13.1108 -12.4462 -83.5389
rradius 29.1245
rwrist 28.4055
rhand -20.712 -23.4131
rfingers 7.12502
rthumb 5.65244 -53.3178
lclavicle 3.47873e-015 4.77083e-015
lhumerus -8.68375 4.17359 86.6061
lradius 19.2686
lwrist 8.48924
lhand -28.7222 -9.57536
lfingers 7.12502
lthumb -2.08342 20.3942
rfemur -10.5049 -4.10267 19.6655
rtibia 41.6312
rfoot 0.169415 -6.60312
rtoes -19.6847
lfemur -16.4711 5.58207 -16.3301
ltibia 48.7444
lfoot 9.17136 2.30848
ltoes -23.4823
261
root 0.159819 17.9605 -7.44057 11.9018 1.00771 -1.13344
lowerback 1.9026 0.387508 -0.924253
upperback 3.85302 0.479734 1.65412
thorax 2.8696 0.186722 2.22196
lowerneck -11.2602 -0.0177681 -2.21953
upperneck 18.7125 0.275814 0.675796
head 7.61172 0.0407523 0.618405
rclavicle -1.39149e-015 9.54166e-015
rhumerus -13.4854 -11.9083 -83.615
rradius 29.4299
rwrist 28.2493
rhand -20.6256 -23.2074
rfingers 7.12502
rthumb 5.73582 -53.1098
lclavicle -1.39149e-015 9.54166e-015
lhumerus -9.18252 3.13125 86.5885
lradius 19.7309
lwrist 9.72336
lhand -28.835 -9.53124
lfingers 7.12502
lthumb -2.19231 20.4372
rfemur -9.75543 -3.83887 19.462
rtibia 41.9473
rfoot 5.51357 -6.10903
rtoes -14.854
lfemur -15.5511 4.66663 -16.0665
ltibia 48.5448
lfoot 14.1192 1.237
ltoes -19.4402
262
root 0.168754 18.1536 -7.18682 11.2359 0.996504 -1.16162
lowerback 1.42703 0.342156 -0.874188
upperback 4.02196 0.419095 1.62382
thorax 3.31575 0.153324 2.16741
lowerneck -10.6948 0.013535 -2.16435
upperneck 19.2765 0.290248 0.703142
head 7.69556 0.0502063 0.620714
rclavicle -1.2921e-015 -4.37326e-015
rhumerus -13.833 -11.4832 -83.6736
rradius 29.7426
rwrist 28.0364
rhand -20.6102 -23.002
rfingers 7.12502
rthumb 5.75075 -52.904
lclavicle -1.2921e-015 -4.37326e-015
lhumerus -9.68017 2.19582 86.5654
lradius 20.1971
lwrist 10.8446
lhand -28.9119 -9.4654
lfingers 7.12502
lthumb -2.26663 20.5023
rfemur -9.48267 -3.54705 19.3248
rtibia 42.6696
rfoot 10.7399 -5.8915
rtoes -8.16071
lfemur -15.0884 3.79987 -15.8687
ltibia 48.726
lfoot 18.4874 0.672987
ltoes -15.126
263
root 0.175454 18.3373 -6.94236 10.7337 1.02704 -1.18131
lowerback 0.962536 0.279717 -0.875659
upperback 4.15358 0.335858 1.60492
thorax 3.71856 0.107683 2.15195
lowerneck -10.2479 0.0483835 -2.07602
upperneck 19.7764 0.307454 0.725137
head 7.77967 0.0635116 0.615945
rclavicle -2.68359e-015 -8.94531e-015
rhumerus -14.1552 -11.1722 -83.718
rradius 30.081
rwrist 27.7529
rhand -20.6414 -22.8414
rfingers 7.12502
rthumb 5.72062 -52.7442
lclavicle -2.68359e-015 -8.94531e-015
lhumerus -10.1662 1.37262 86.5403
lradius 20.6799
lwrist 11.8456
lhand -28.9566 -9.39315
lfingers 7.12502
lthumb -2.30976 20.5741
rfemur -9.65901 -3.27371 19.2582
rtibia 43.7952
rfoot 15.4094 -5.94942
rtoes -0.468268
lfemur -15.085 3.03107 -15.7223
ltibia 49.3289
lfoot 21.8096 0.557828
ltoes -11.0891
264
root 0.179892 18.5092 -6.70794 10.369 1.095 -1.18469
lowerback 0.533574 0.201509 -0.937066
upperback 4.2571 0.232601 1.59678
thorax 4.07371 0.0503745 2.17915
lowerneck -9.89792 0.0853904 -1.97856
upperneck 20.1914 0.32695 0.754083
head 7.85337 0.0799998 0.611978
rclavicle -1.98785e-015 6.95746e-015
rhumerus -14.4597 -10.9807 -83.747
rradius 30.4389
rwrist 27.4248
rhand -20.7255 -22.7407
rfingers 7.12502
rthumb 5.63941 -52.6457
lclavicle -1.98785e-015 6.95746e-015
lhumerus -10.6437 0.65851 86.5157
lradius 21.1802
lwrist 12.742
lhand -28.9532 -9.328
lfingers 7.12502
lthumb -2.30655 20.6393
rfemur -10.228 -3.04651 19.2474
rtibia 45.2879
rfoot 19.077 -6.12878
rtoes 6.87993
lfemur -15.4997 2.38401 -15.6246
ltibia 50.3342
lfoot 23.8248 0.786179
ltoes -7.62379
265
root 0.182306 18.6673 -6.48405 10.1023 1.19642 -1.17721
lowerback 0.174551 0.11291 -1.04529
upperback 4.34881 0.116734 1.59931
thorax 4.37849 -0.014847 2.24151
lowerneck -9.63933 0.124174 -1.87082
upperneck 20.516 0.348552 0.785946
head 7.91377 0.0992948 0.607244
rclavicle 4.77083e-015 3.18055e-015
rhumerus -14.7415 -10.907 -83.7594
rradius 30.7974
rwrist 27.0859
rhand -20.8019 -22.7869
rfingers 7.12502
rthumb 5.5656 -52.6938
lclavicle 4.77083e-015 3.18055e-015
lhumerus -11.1002 0.053617 86.4955
lradius 21.7004
lwrist 13.5636
lhand -28.8838 -9.21701
lfingers 7.12502
lthumb -2.2395 20.751
rfemur -11.111 -2.88137 19.2887
rtibia 47.075
rfoot 21.4523 -6.23056
rtoes 12.6885
lfemur -16.261 1.85488 -15.5591
ltibia 51.6645
lfoot 24.5335 1.19215
ltoes -4.93555
266
root 0.183215 18.8111 -6.27029 9.8862 1.32325 -1.15444
lowerback -0.0655628 0.0182573 -1.19348
upperback 4.43167 -0.00602544 1.6108
thorax 4.608 -0.0847833 2.33361
lowerneck -9.43951 0.161053 -1.78309
upperneck 20.7708 0.368747 0.835503
head 7.96176 0.118643 0.611407
rclavicle 4.17448e-015 7.95139e-016
rhumerus -15.0281 -10.9524 -83.7469
rradius 31.1435
rwrist 26.798
rhand -20.8629 -22.9181
rfingers 7.12502
rthumb 5.50669 -52.8266
lclavicle 4.17448e-015 7.95139e-016
lhumerus -11.5438 -0.436631 86.4859
lradius 22.2125
lwrist 14.3111
lhand -28.7612 -9.11081
lfingers 7.12502
lthumb -2.12106 20.8584
rfemur -12.2184 -2.78388 19.3615
rtibia 49.0517
rfoot 22.5415 -6.1604
rtoes 16.5014
lfemur -17.2721 1.41539 -15.524
ltibia 53.1843
lfoot 24.224 1.66998
ltoes -2.901
267
root 0.183373 18.9409 -6.06531 9.6737 1.4612 -1.12571
lowerback -0.154748 -0.0720691 -1.35481
upperback 4.51941 -0.122935 1.62709
thorax 4.75757 -0.152021 2.43713
lowerneck -9.29922 0.193086 -1.71507
upperneck 20.9855 0.383477 0.901595
head 8.00731 0.135843 0.623828
rclavicle 3.57812e-015 9.93923e-016
rhumerus -15.3086 -11.1165 -83.7087
rradius 31.4409
rwrist 26.6025
rhand -20.8725 -23.1457
rfingers 7.12502
rthumb 5.49749 -53.0543
lclavicle 3.57812e-015 9.93923e-016
lhumerus -11.9633 -0.83251 86.4864
lradius 22.6846
lwrist 15.0015
lhand -28.5903 -9.04345
lfingers 7.12502
lthumb -1.95603 20.9273
rfemur -13.4558 -2.74785 19.4564
rtibia 51.0908
rfoot 22.5962 -5.96379
rtoes 18.7221
lfemur -18.4208 1.04306 -15.5056
ltibia 54.732
lfoot 23.3067 2.15004
ltoes -1.34384
268
root 0.183298 19.0584 -5.86729 9.4251 1.60138 -1.09368
lowerback -0.0645512 -0.15288 -1.51538
upperback 4.61967 -0.228371 1.64688
thorax 4.81838 -0.213031 2.54389
lowerneck -9.22423 0.21911 -1.669
upperneck 21.2003 0.392574 0.978763
head 8.0649 0.149944 0.643321
rclavicle -5.96354e-016 2.38542e-015
rhumerus -15.5757 -11.3893 -83.6415
rradius 31.6522
rwrist 26.5284
rhand -20.8448 -23.4166
rfingers 7.12502
rthumb 5.5242 -53.3246
lclavicle -5.96354e-016 2.38542e-015
lhumerus -12.3505 -1.11955 86.4987
lradius 23.0883
lwrist 15.6128
lhand -28.3808 -8.99638
lfingers 7.12502
lthumb -1.7537 20.9762
rfemur -14.7394 -2.76449 19.5579
rtibia 53.06
rfoot 21.9634 -5.82225
rtoes 19.7956
lfemur -19.5968 0.723176 -15.4986
ltibia 56.1413
lfoot 22.2448 2.57492
ltoes 0.0671603
269
root 0.183419 19.1648 -5.67474 9.11532 1.73238 -1.0729
lowerback 0.214493 -0.218818 -1.64972
upperback 4.73653 -0.316747 1.66902
thorax 4.78858 -0.263824 2.63939
lowerneck -9.21591 0.239339 -1.64247
upperneck 21.4446 0.397277 1.0596
head 8.14479 0.160921 0.667363
rclavicle -2.88238e-015 1.98785e-016
rhumerus -15.824 -11.7524 -83.5478
rradius 31.7577
rwrist 26.5728
rhand -20.7632 -23.6898
rfingers 7.12502
rthumb 5.60297 -53.5958
lclavicle -2.88238e-015 1.98785e-016
lhumerus -12.6926 -1.30103 86.5177
lradius 23.3853
lwrist 16.1211
lhand -28.1686 -8.99952
lfingers 7.12502
lthumb -1.54872 20.9746
rfemur -16.0005 -2.8229 19.6659
rtibia 54.8393
rfoot 21.0267 -5.84317
rtoes 20.4297
lfemur -20.709 0.465524 -15.4881
ltibia 57.2747
lfoot 21.2479 2.94807
ltoes 1.15796
270
root 0.184039 19.2613 -5.48625 8.73798 1.83977 -1.06212
lowerback 0.670553 -0.266241 -1.75542
upperback 4.86988 -0.383537 1.69014
thorax 4.67431 -0.30189 2.7195
lowerneck -9.27933 0.255184 -1.61943
upperneck 21.7423 0.400557 1.12564
head 8.25609 0.169622 0.687604
rclavicle 2.78299e-015 -4.37326e-015
rhumerus -16.0448 -12.185 -83.4317
rradius 31.7394
rwrist 26.718
rhand -20.6894 -23.8815
rfingers 7.12502
rthumb 5.6742 -53.7855
lclavicle 2.78299e-015 -4.37326e-015
lhumerus -12.9853 -1.37813 86.5371
lradius 23.5571
lwrist 16.5032
lhand -27.9578 -9.01902
lfingers 7.12502
lthumb -1.34517 20.9565
rfemur -17.1942 -2.91894 19.7669
rtibia 56.3357
rfoot 19.9938 -6.00694
rtoes 20.9779
lfemur -21.6901 0.292696 -15.4822
ltibia 58.0327
lfoot 20.3343 3.32025
ltoes 1.89497
271
root 0.185223 19.3479 -5.30101 8.30408 1.9136 -1.07053
lowerback 1.27526 -0.295687 -1.82359
upperback 5.01543 -0.429427 1.71047
thorax 4.48726 -0.327213 2.77957
lowerneck -9.40681 0.269897 -1.58218
upperneck 22.0896 0.407398 1.15927
head 8.39656 0.178097 0.695627
rclavicle 2.48481e-016 -5.76476e-015
rhumerus -16.2371 -12.6517 -83.3021
rradius 31.6073
rwrist 26.9165
rhand -20.6096 -24.0173
rfingers 7.12502
rthumb 5.75124 -53.9193
lclavicle 2.48481e-016 -5.76476e-015
lhumerus -13.2283 -1.33956 86.5469
lradius 23.594
lwrist 16.7205
lhand -27.7719 -9.03185
lfingers 7.12502
lthumb -1.16564 20.9447
rfemur -18.3049 -3.05613 19.8705
rtibia 57.4897
rfoot 18.8824 -6.22918
rtoes 21.439
lfemur -22.5136 0.228032 -15.476
ltibia 58.3611
lfoot 19.4218 3.7244
ltoes 2.41012
272
root 0.187093 19.4243 -5.11863 7.84178 1.94641 -1.09776
lowerback 1.98791 -0.310224 -1.85715
upperback 5.16114 -0.457578 1.72942
thorax 4.2384 -0.341447 2.82037
lowerneck -9.55532 0.284615 -1.53222
upperneck 22.4533 0.419546 1.15862
head 8.54727 0.186822 0.69082
rclavicle 8.44835e-016 -1.21259e-014
rhumerus -16.407 -13.1216 -83.1657
rradius 31.3752
rwrist 27.1289
rhand -20.5689 -24.05
rfingers 7.12502
rthumb 5.7906 -53.9509
lclavicle 8.44835e-016 -1.21259e-014
lhumerus -13.4379 -1.1844 86.5391
lradius 23.5037
lwrist 16.7578
lhand -27.6257 -9.02035
lfingers 7.12502
lthumb -1.02439 20.9569
rfemur -19.3438 -3.23567 19.9816
rtibia 58.2714
rfoot 17.6364 -6.4333
rtoes 21.7772
lfemur -23.1928 0.281182 -15.4728
ltibia 58.2389
lfoot 18.4367 4.14395
ltoes 2.84153
